<svg width="28" height="22" xmlns="http://www.w3.org/2000/svg">

 <g>
  <title>background</title>
  <rect fill="none" id="canvas_background" height="24" width="30" y="-1" x="-1"/>
 </g>
 <g>
  <title>Layer 1</title>
  <path stroke="null" id="svg_1" fill="#000000" d="m21.226325,7.034046c-0.415895,-0.355321 -0.886439,-0.726666 -1.401124,-1.086681l2.574786,-2.877058c0.35244,-0.393814 0.348406,-1.02791 -0.009089,-1.416216c-0.357439,-0.388306 -0.932908,-0.383925 -1.285348,0.009952l-2.930861,3.27494c-1.320967,-0.689613 -2.81696,-1.186887 -4.385158,-1.186887l-0.056297,0.000188c-2.968923,0.023096 -5.679765,1.873433 -7.431113,3.421587c-1.732374,1.531443 -3.306252,3.514846 -3.302105,4.161334c0.004658,0.732424 1.532749,2.64341 3.336758,4.172913c0.377549,0.320083 0.856274,0.697561 1.41311,1.079609l-2.598532,2.903721c-0.35244,0.393814 -0.348406,1.02791 0.009089,1.416216c0.177072,0.192401 0.407601,0.28835 0.638129,0.28835c0.234732,0 0.469408,-0.09958 0.647275,-0.298302l2.965969,-3.314184c1.28762,0.659382 2.789351,1.167359 4.360162,1.167359l0.057206,-0.000188c3.154289,-0.024535 6.00897,-2.100884 7.429863,-3.336465c1.795317,-1.561111 3.308013,-3.505708 3.303297,-4.246393c-0.004431,-0.687672 -1.563312,-2.619313 -3.336019,-4.133795zm-11.902733,4.252027c-0.017327,-2.712384 1.964322,-4.92668 4.426116,-4.94577c0.907515,-0.007073 1.753109,0.285972 2.460601,0.793699l-6.13179,6.851687c-0.470658,-0.772293 -0.748508,-1.699747 -0.754927,-2.699616zm4.489003,4.876546c-0.896665,0.006947 -1.732658,-0.279275 -2.43498,-0.775861l6.122644,-6.841547c0.460546,0.766723 0.73209,1.683661 0.738453,2.671576c0.017327,2.712447 -1.964322,4.926743 -4.426116,4.945833z"/>
  <g id="svg_2"/>
  <g id="svg_3"/>
  <g id="svg_4"/>
  <g id="svg_5"/>
  <g id="svg_6"/>
  <g id="svg_7"/>
  <g id="svg_8"/>
  <g id="svg_9"/>
  <g id="svg_10"/>
  <g id="svg_11"/>
  <g id="svg_12"/>
  <g id="svg_13"/>
  <g id="svg_14"/>
  <g id="svg_15"/>
  <g id="svg_16"/>
  <polyline stroke="#000" stroke-linecap="round" id="svg_17" points="0.75,88.21800231933594 0.75,88.21800231933594 " stroke-width="1.5" fill="none"/>
 </g>
</svg>